<svg xmlns="http://www.w3.org/2000/svg" xmlns:xlink="http://www.w3.org/1999/xlink" viewBox="0 0 408.5 119.39"><defs><style>.a{fill:#fff;}.b{fill:url(#a);}</style><linearGradient id="a" x1="1.52" y1="50.77" x2="407.44" y2="50.77" gradientUnits="userSpaceOnUse"><stop offset="0" stop-color="#00a2e2"/><stop offset="0.13" stop-color="#00a2db"/><stop offset="0.32" stop-color="#00a3c7"/><stop offset="0.54" stop-color="#00a4a7"/><stop offset="0.8" stop-color="#00a57a"/><stop offset="1" stop-color="#00a651"/></linearGradient></defs><title>HHlogo-footer</title><path class="a" d="M271.72,100.6v3q0,4.32-.1,7.68t-.29,6.59a14,14,0,0,1,1.78-.1h4.33a14,14,0,0,1,1.78.1q-.19-3.23-.29-6.59t-.1-7.68V96.49q0-4.32.1-7.68t.29-6.75q-.82.1-1.78.18t-2.17.08q-1.2,0-2.17-.08t-1.78-.18q.19,3.39.29,6.69t.1,7.63Z"/><path class="a" d="M257.09,100.6v3q0,4.32.1,7.68t.29,6.59a14,14,0,0,0-1.78-.1h-4.33a14,14,0,0,0-1.78.1q.19-3.23.29-6.59t.1-7.68V96.49q0-4.32-.1-7.68t-.29-6.75q.82.1,1.78.18t2.16.08q1.2,0,2.17-.08t1.78-.18q-.24,3.39-.31,6.69t-.07,7.63Z"/><path class="a" d="M90.94,28.18h8.22c-.64,4.29-.64,14.31-.64,20.16,0,8.63.12,14.89.58,19.58H90.89c.64-6.89.64-16.45.64-26.35a119.76,119.76,0,0,0-.58-13.38"/><path class="a" d="M128.53,27.72a31.41,31.41,0,0,1,13.55,2.9l-1.74,5.68h-.58c-.7-1.39-2.72-5.44-11.06-5.44-9.67,0-14.83,6.37-14.83,17.32,0,4.4.81,8.57,3.53,12.11a12.49,12.49,0,0,0,10.48,5.27,15.69,15.69,0,0,0,8.23-2.09c.17-4.05.17-4.52.17-5.27,0-2.84-.17-5.68-.35-8.51h7.76c-.35,2.08-.46,8.17-.46,9.73,0,2.2.06,3.65.17,5.27a37.59,37.59,0,0,1-16.8,4.06c-11.29,0-20.68-7-20.68-20,0-11.64,7.12-21,22.59-21"/><path class="a" d="M178.52,48.39c-3.13-.12-6.26-.23-9.38-.23-3.3,0-6.6.12-9.9.23v5.79c0,7.47.23,10.08.52,13.73h-8.11c.46-8.8.52-17.55.52-26.35,0-4.52-.17-8.92-.58-13.38h8.17c-.29,3.19-.52,5.68-.52,16.51,2.9.12,5.85.23,8.75.23,3.53,0,7-.12,10.54-.23,0-1.51-.06-8.51-.12-10,0-1.8-.06-2.26-.29-6.55h8.28c-.75,6-.81,20-.81,26.06a104.63,104.63,0,0,0,.58,13.67H178c.06-1,.46-8,.46-10.19Z"/><path class="a" d="M203.25,31.83c3.82,7.82,5.44,10.89,10.95,20.74l3.13,5.56,2.14-3.77c5.44-9.56,8-14.36,13.9-26.18h2.49l.46,4.81c.64,6.83,1.39,13.21,2.32,20.16.46,3.48,1.68,11.87,2.32,14.77h-8.11l-.17-2.14c-.12-1.16-.41-6.31-.52-7.36-.29-2.66-1.68-14.36-1.85-16.8a293.41,293.41,0,0,0-13.79,26.3h-2.26c-2.2-4.4-3.65-6.83-8-15.23-.87-1.68-5-9-5.79-10.48-1,8.11-2,17-2.43,25.72h-5.1l.35-1.8c1.39-7.18,4.87-31.22,5.56-37.94h2.6Z"/><path class="a" d="M260.36,37.51l-5.91,14.25c2,.06,4,.23,6,.23,1.79,0,3.53-.12,5.33-.23Zm9.56,24-2.43-6.14c-2.49-.12-4.92-.23-7.41-.23-2.32,0-4.63.11-7,.23a126.85,126.85,0,0,0-4.63,12.57H243.1L249.82,53c5.85-13.09,9.21-20.62,10.6-25.37h3.77c2.78,7.94,6.26,16,8.34,20.91,2.2,5,6,13.78,8.63,19.4h-8.8Z"/><path class="a" d="M292.39,46.31c1.1.06,2.49.17,4,.17,5.79,0,7.93-4.23,7.93-8,0-2.43-.41-4.52-2.43-6A8.81,8.81,0,0,0,296.51,31c-1.1,0-3.24.23-4.11.29Zm11.12,4.23c.87,1.22,2.14,3.13,3,4.34,4.57,6.43,6.14,8.46,9.79,13h-9.85c-.87-1.33-2.14-3.48-3-4.81-3-4.58-6.55-9.67-9.67-14.07h-1.39v8.23c0,1.68.23,9.15.23,10.66h-7.88c.46-11.41.52-12.68.52-23.86,0-7.59,0-8.4-.4-15.87h15.35c3.76,0,6.6.46,9.09,2.84A9,9,0,0,1,312,37.51c0,6.43-4.81,9.73-10.08,10.71Z"/><path class="a" d="M320.89,28.18H329a90.41,90.41,0,0,0-.46,9.15c-.06,2.9-.06,6.2-.06,9.21a113.54,113.54,0,0,0,9.9-9.79,110.78,110.78,0,0,0,7.41-8.57h6.6c-3,2.49-7,6.37-9.44,8.75-2.9,2.84-3.82,3.71-8.05,8.34L338,49.32c3,3.88,11.29,14.88,15.35,18.59H343.25A193.27,193.27,0,0,0,328.48,49c0,6.37,0,12.8.52,18.94h-8.11c.52-9.79.52-10.43.52-26.35a120.78,120.78,0,0,0-.52-13.38"/><path class="a" d="M359.53,62.09a3.07,3.07,0,1,0,3.06,3.06,3.08,3.08,0,0,0-3.06-3.06m0,5.64a2.58,2.58,0,1,1,2.57-2.58,2.49,2.49,0,0,1-2.57,2.58"/><path class="a" d="M361.11,64.35c0-.63-.31-1-1.22-1h-1.51v3.51h.44V65.33h.76l1,1.56h.51l-1-1.56c.61,0,1.08-.31,1.08-1m-1.67.57h-.62V63.79h1c.42,0,.83.06.83.55,0,.66-.69.58-1.18.58"/><path class="a" d="M127.12,100.47q-1.83-.08-3.66-.08t-3.66.05q-1.83.05-3.66.16v3q0,4.32.1,7.68t.29,6.59a14,14,0,0,0-1.78-.1h-4.33a14,14,0,0,0-1.78.1q.19-3.23.29-6.59t.1-7.68V96.49q0-4.32-.1-7.68t-.29-6.75q.82.1,1.78.18t2.16.08q1.2,0,2.17-.08t1.78-.18q-.24,3.39-.31,6.69t-.07,7.63q1.25.05,3,.08t4.35,0q2.6,0,4.23,0t3-.08q0-4.32-.1-7.63t-.29-6.69q.82.1,1.78.18t2.17.08q1.2,0,2.17-.08t1.78-.18q-.19,3.39-.29,6.75t-.1,7.68v7.08q0,4.32.1,7.68t.29,6.59a14,14,0,0,0-1.78-.1h-4.33a14,14,0,0,0-1.78.1q.19-3.23.29-6.59t.1-7.68v-3l-3.66-.13"/><path class="a" d="M146.14,88.81q-.08-3.36-.25-6.74,2.15.05,4.26.16t4.26.1q3.54,0,6.3-.08t3.71-.18a10.08,10.08,0,0,0-.19,2.19q0,.83,0,1.3c0,.31.08.66.14,1l-3-.21-3.21-.21q-1.56-.11-2.8-.16T153.59,86q-.19,2.87-.21,5.68t0,5.68q3.11-.05,5.63-.16t5.24-.26q-.14.89-.19,1.35a9.74,9.74,0,0,0,0,1,5.33,5.33,0,0,0,.07.86q.07.44.17,1.28-5.46-.47-10.87-.47,0,1.67,0,3.33t0,3.33q0,3.39.14,6.51,2.73,0,5.46-.16t5.51-.52q-.1.57-.14,1c0,.31,0,.75,0,1.3s0,1,0,1.3a4,4,0,0,0,.14.78q-1.29-.05-3.18-.08t-5.19,0h-7.59q-1.08,0-1.63,0t-.93.08q.17-3.23.25-6.59t.08-7.68V96.49q0-4.32-.08-7.68"/><path class="a" d="M194.93,110.44q-1.68-4.37-3.46-9.24t-3.53-9.92l-3.29-9.48-.91.18a5.37,5.37,0,0,1-1.82,0L181,81.8q-1.06,3-2.33,6.4l-2.59,7q-1.32,3.54-2.64,7L171,108.67q-1.15,3-2.11,5.41t-1.54,3.75a8.09,8.09,0,0,1,1.25-.1h2.28a6.28,6.28,0,0,1,1.13.1q.67-2.55,1.49-5.21t1.78-5.31l2.5-.08,2.49,0,3.07,0,3.07.08q.91,2.65,1.73,5.31t1.58,5.21a19.68,19.68,0,0,1,2-.1h4.08c.69,0,1.42,0,2.18.1q-1.39-3-3.07-7.4M183.2,98q1,3,2.09,6.22H176.5q1.05-3.18,2.16-6.22T181,91.85Q182.17,95,183.2,98"/><path class="a" d="M203.13,88.81q-.1-3.36-.29-6.74.81.11,1.77.18t2.15.08q1.2,0,2.15-.08t1.77-.18q-.19,3.39-.29,6.74t-.1,7.68v7.08q0,3,0,5.73t.07,4.79q2.73,0,5.46-.16t5.51-.52q-.1.57-.14,1c0,.31,0,.75,0,1.3s0,1,0,1.3a4.08,4.08,0,0,0,.14.78q-1.29-.05-3.18-.08t-5.19,0H205.4q-1.08,0-1.63,0t-.93.08q.19-3.23.29-6.59t.1-7.68V96.49q0-4.32-.1-7.68"/><path class="a" d="M228.61,87.78a13.91,13.91,0,0,0-.12-1.82c-.48,0-1.07,0-1.78.05l-2.26.13q-1.2.08-2.45.21t-2.3.29q.1-.57.17-1.15a9.15,9.15,0,0,0,0-2.29q-.07-.57-.17-1.15l3,.1,2.69.08,3,.05q1.61,0,3.86,0t3.86,0l3-.05,2.62-.08,2.76-.1c-.07.38-.12.76-.17,1.15a9.16,9.16,0,0,0,0,2.29c0,.38.1.77.17,1.15q-1-.16-2.16-.29t-2.38-.21L237.61,86q-1.06-.05-1.78-.05a6,6,0,0,0-.07.73c0,.31,0,.68,0,1.09v15.79q0,4.33.1,7.69t.29,6.59a14,14,0,0,0-1.78-.1H230a14,14,0,0,0-1.78.1q.19-3.23.29-6.59t.1-7.69v-13q0-1.51,0-2.76"/><path class="a" d="M73.56,48.39l-.06,9.33c0,2.14-.4,9.15-.46,10.19h8.17a104.63,104.63,0,0,1-.58-13.67c0-6,.06-20,.81-26.06H73.15c.23,4.29.29,4.75.29,6.55.06,1.45.12,8.46.12,10Z"/><path class="a" d="M54.27,48.39v5.79c0,7.47.23,10.08.52,13.73H46.69c.46-8.8.52-17.55.52-26.35,0-4.52-.17-8.92-.58-13.38h8.17c-.29,3.19-.52,5.68-.52,16.51Z"/><path class="b" d="M220.36,1.77c-.6,0-17.25-.24-25.18-.24C88.22,1.53,1.52,13.61,1.52,29.18c0,9.7,28.67,17.08,79.11,21.36q0-.72,0-1.5C41.82,44.62,16.72,38,16.72,31c0-13.05,74-26.09,186.21-25.11,2.14,0,4.32,0,6.54,0C326.67,5.79,392.65,25.2,392.65,52.94c0,21.33-65.82,42.22-142.68,44.94V100c89.25-3.38,157.46-22.84,157.46-47.29C407.44,27.6,348.79,3.83,220.36,1.77Z"/></svg>